<svg id="Layer_1" height="512" viewBox="0 0 512 512" width="512" xmlns="http://www.w3.org/2000/svg" data-name="Layer 1"><path d="m422 113.03 31.09 85.63h-394.18l31.08-85.63a32.18 32.18 0 0 1 30.25-21.19h271.52a32.177 32.177 0 0 1 30.24 21.19z" fill="#adf0e5"/><path d="m150.24 92h-30a32.262 32.262 0 0 0 -30.25 21.28l-31.08 85.72h30l31.08-85.72a32.262 32.262 0 0 1 30.25-21.28z" fill="#88bab1"/><path d="m481.16 404.77a15.019 15.019 0 0 1 -14.91 15.12l-40.67.27a15.019 15.019 0 0 1 -15.13-14.9l-.32-47.32v-.61h70.7v.12z" fill="#6d7486"/><path d="m101.87 404.77a15.01 15.01 0 0 1 -14.9 15.12l-40.67.27a15.012 15.012 0 0 1 -15.13-14.9l-.33-47.32v-.61h70.71v.12z" fill="#6d7486"/><path d="m454.805 199h-397.565a29.992 29.992 0 0 0 -30.24 30.17v85.83h458v-85.83a29.954 29.954 0 0 0 -30.195-30.17z" fill="#6994fe"/><path d="m357.12 314.64h-210.11l21.13-27.83h167.86z" fill="#5278c6"/><path d="m61.25 405.26-.25-47.32v-.94h-30v.94l.25 47.32a14.978 14.978 0 0 0 15.09 14.9l27.675-.184a14.981 14.981 0 0 1 -12.765-14.716z" fill="#505560"/><path d="m87.24 199h-30a29.992 29.992 0 0 0 -30.24 30.17v85.83h30v-85.83a29.992 29.992 0 0 1 30.24-30.17z" fill="#5a80cc"/><path d="m424.51 220.18a25.6 25.6 0 0 1 0 51.19h-54.72l9.89-51.19z" fill="#6addc7"/><path d="m125.52 220.18 9.9 51.19h-54.72a25.6 25.6 0 0 1 0-51.19z" fill="#6addc7"/><path d="m492 314h-472a3.713 3.713 0 0 0 -4 3.64v37.69a3.731 3.731 0 0 0 4 3.67h472a3.731 3.731 0 0 0 4-3.67v-37.69a3.713 3.713 0 0 0 -4-3.64z" fill="#777796"/><path d="m46 355.33v-37.69a3.713 3.713 0 0 1 4-3.64h-30a3.713 3.713 0 0 0 -4 3.64v37.69a3.731 3.731 0 0 0 4 3.67h30a3.731 3.731 0 0 1 -4-3.67z" fill="#535368"/><g id="_Path_8" data-name=" Path 8"><path d="m332.3 270.341h-159.4a6 6 0 1 1 0-12h159.4a6 6 0 0 1 0 12z" fill="#4a6ca3"/></g><g id="_Path_9" data-name=" Path 9"><path d="m332.3 233.208h-159.4a6 6 0 0 1 0-12h159.4a6 6 0 0 1 0 12z" fill="#4a6ca3"/></g><g id="_Path_8-2" data-name=" Path 8"><path d="m332.3 252.106h-159.4a6 6 0 1 1 0-12h159.4a6 6 0 0 1 0 12z" fill="#4a6ca3"/></g><g fill="#f4f8fc"><path d="m240.829 123.667h-101.756a6 6 0 0 1 0-12h101.756a6 6 0 0 1 0 12z"/><path d="m120.39 123.667h-4.885a6 6 0 0 1 0-12h4.885a6 6 0 1 1 0 12z"/></g></svg>