<svg id="Layer_1" enable-background="new 0 0 128 128" height="512" viewBox="0 0 128 128" width="512" xmlns="http://www.w3.org/2000/svg"><g><g><g><path d="m120.7 64.953c-2.454-2.582-6.414-2.867-9.211-.663l-17.877 14.089c-1.216-1.59-3.092-2.54-5.125-2.54h-14.665c-3.642 0-7.261-.52-10.755-1.544l-3.424-1.003c-3.332-.983-6.623-1.342-9.779-1.062-8.723.755-12.351 5.397-14.299 7.891-.432.553-.84 1.075-1.099 1.269-.265.198-2.874 1.906-6.728 4.405-.775-.896-1.799-1.531-2.978-1.787-1.441-.315-2.915-.047-4.152.751l-8.664 5.575c-2.555 1.643-3.297 5.06-1.654 7.615l13.824 21.506c.796 1.239 2.027 2.093 3.466 2.406.393.085.789.127 1.181.127 1.045 0 2.071-.299 2.971-.878l8.664-5.575c2.555-1.643 3.296-5.06 1.654-7.615l-.843-1.311c4.358-2.678 7.708-4.623 8.279-4.802 2.313-.653 7.326.438 12.632 1.595 4.507.983 9.148 1.994 13.201 2.232.579.034 1.146.052 1.699.052 5.762 0 10.438-2.932 13.349-5.393.301-.256.978-.832 1.93-1.642 6.826-5.812 27.927-23.8 27.934-23.806 1.424-1.239 2.257-2.96 2.347-4.846.089-1.885-.578-3.677-1.878-5.046z" fill="#e6e7e8"/></g><g><path d="m72.272 69.65c1.305 1.306 3.041 2.025 4.888 2.025 1.846 0 3.582-.719 4.887-2.025l25.808-25.808c.715-.715 1.342-1.484 1.925-2.275h8.385c1.93 0 3.5-1.57 3.5-3.5s-1.57-3.5-3.5-3.5h-5.109c1.594-6.512-.125-13.676-5.201-18.752-7.727-7.728-20.3-7.727-28.027 0l-2.668 2.669-2.669-2.669c-7.726-7.728-20.3-7.729-28.027 0-7.727 7.726-7.727 20.3 0 28.027z" fill="#e6e7e8"/></g></g><g><g><g><g><g><path d="m115.975 61.642c-2.083-2.192-5.492-2.437-7.867-.566l-18.747 14.774c-.909-1.78-2.739-3.01-4.875-3.01h-14.664c-3.736 0-7.452-.533-11.037-1.584l-3.426-1.004c-3.054-.901-6.242-1.304-9.41-1.025-10.528.911-13.167 7.681-14.886 8.965-.471.352-6.407 4.2-7.561 4.948l12.312 19.154c1.268-.783 8.371-5.156 9.399-5.448 4.86-1.376 18.705 3.84 27.805 3.84 5.518 0 10.021-2.888 12.702-5.155 2.464-2.091 29.854-25.44 29.854-25.44 2.515-2.189 2.697-6.032.401-8.449z" fill="#ffd7e5"/></g><g><path d="m31.063 81.191c1.718-1.284 4.358-8.054 14.886-8.965 3.168-.279 6.356.124 9.41 1.025l3.426 1.004c3.585 1.05 7.301 1.584 11.037 1.584h14.664c2.135 0 3.966 1.231 4.875 3.01l18.747-14.773c2.375-1.872 5.784-1.626 7.867.566.702.739 1.17 1.612 1.413 2.53.499-1.893.043-3.998-1.413-5.53-2.083-2.192-5.492-2.437-7.867-.566l-18.747 14.774c-.909-1.779-2.739-3.01-4.875-3.01h-14.664c-3.736 0-7.452-.533-11.037-1.584l-3.426-1.004c-3.054-.901-6.242-1.304-9.41-1.025-10.528.911-13.167 7.681-14.886 8.965-.471.352-6.407 4.2-7.561 4.947l1.361 2.117c2.156-1.399 5.833-3.79 6.2-4.065z" fill="#fff"/></g></g><path d="m35.854 110.694-8.664 5.575c-2.096 1.349-4.889.742-6.237-1.354l-13.824-21.506c-1.347-2.095-.741-4.886 1.354-6.234l8.664-5.575c2.096-1.349 4.889-.742 6.237 1.355l13.824 21.506c1.347 2.095.741 4.885-1.354 6.233z" fill="#0089ef"/></g><circle cx="25.286" cy="107.318" fill="#d4fbff" r="2.5"/></g><path d="m103.148 12.523c-7.349-7.349-19.264-7.349-26.613 0l-3.376 3.376-3.376-3.376c-7.349-7.349-19.264-7.349-26.612 0-7.349 7.349-7.349 19.263 0 26.613l3.376 3.376 22.432 22.432c2.309 2.309 6.052 2.309 8.361 0l22.432-22.432 3.376-3.376c7.349-7.35 7.349-19.264 0-26.613z" fill="#fa759e"/><g><path d="m82.788 49.568c-.083 0-.167-.004-.251-.013-.985-.099-1.819-.77-2.127-1.711l-6.081-18.632-6.325 11.095c-.456.8-1.288 1.294-2.238 1.261-.921-.024-1.754-.553-2.168-1.377l-3.769-7.501-2.329 2.934c-.474.598-1.195.946-1.958.946h-6.377c-1.381 0-2.5-1.119-2.5-2.5s1.119-2.5 2.5-2.5h5.169l4.013-5.054c.53-.669 1.365-1.022 2.214-.933.849.087 1.594.602 1.977 1.365l3.432 6.83 6.811-11.946c.49-.859 1.436-1.347 2.425-1.249.984.1 1.817.771 2.124 1.711l6.077 18.617 4.58-8.074c.444-.783 1.274-1.267 2.174-1.267h24.004c1.381 0 2.5 1.119 2.5 2.5s-1.119 2.5-2.5 2.5h-22.548l-6.656 11.733c-.446.786-1.28 1.265-2.173 1.265z" fill="#d4fbff"/><g fill="#3a2c60"><path d="m116.7 60.953c-2.453-2.582-6.413-2.866-9.211-.663l-17.877 14.089c-1.216-1.59-3.092-2.54-5.125-2.54h-14.665c-3.643 0-7.261-.52-10.756-1.543l-3.425-1.003c-3.332-.983-6.621-1.341-9.779-1.062-8.724.755-12.351 5.397-14.3 7.892-.432.553-.84 1.075-1.098 1.268-.264.197-2.76 1.831-6.729 4.405-.775-.896-1.799-1.531-2.978-1.787-1.441-.314-2.915-.047-4.152.751l-8.664 5.575c-2.555 1.644-3.297 5.06-1.654 7.615l13.824 21.506c.796 1.239 2.027 2.093 3.467 2.406.393.085.788.127 1.181.127 1.046 0 2.071-.299 2.972-.878l8.664-5.575c2.555-1.644 3.297-5.06 1.654-7.615l-.843-1.311c4.299-2.641 7.718-4.626 8.28-4.802 2.313-.654 7.325.438 12.632 1.595 5.15 1.123 10.476 2.284 14.9 2.284 5.762 0 10.438-2.932 13.349-5.393.595-.505 2.644-2.25 5.41-4.607.42-.358.471-.989.113-1.41-.358-.422-.99-.471-1.41-.113-2.764 2.355-4.812 4.1-5.406 4.603-2.654 2.244-6.9 4.919-12.056 4.919-4.208 0-9.427-1.138-14.474-2.238-5.799-1.264-10.809-2.357-13.603-1.564-.965.274-5.618 3.077-8.816 5.044l-11.243-17.492c3.053-1.981 6.4-4.16 6.78-4.443.472-.353.916-.92 1.477-1.639 1.885-2.413 5.04-6.451 12.898-7.131 2.905-.255 5.948.076 9.041.988l3.426 1.004c3.677 1.078 7.485 1.625 11.318 1.625h14.664c1.681 0 3.208.945 3.984 2.465 0 .001.001.001.001.001.32.631.482 1.313.482 2.027 0 2.478-2.016 4.494-4.494 4.494h-26.154c-.552 0-1 .448-1 1s.448 1 1 1h26.155c3.581 0 6.494-2.913 6.494-6.494 0-.751-.128-1.477-.375-2.17l18.148-14.302c1.98-1.562 4.785-1.36 6.522.469.921.969 1.393 2.238 1.33 3.573s-.654 2.554-1.655 3.425l-11.978 10.212c-.42.358-.471.99-.113 1.41.358.421.989.47 1.41.113l11.987-10.218c1.424-1.239 2.258-2.96 2.347-4.845.09-1.887-.577-3.678-1.877-5.047zm-81.387 48.901-8.664 5.575c-.789.508-1.729.677-2.646.479-.917-.199-1.701-.744-2.208-1.533l-13.824-21.506c-1.047-1.628-.574-3.805 1.054-4.853l8.664-5.575c.574-.369 1.227-.56 1.894-.56.25 0 .502.027.752.081.917.199 1.701.744 2.208 1.533l13.824 21.506c1.047 1.628.574 3.805-1.054 4.853z"/><path d="m99.706 82.302-5.785 4.93c-.42.358-.471.989-.113 1.41.198.232.479.352.762.352.229 0 .46-.079.648-.239l5.785-4.93c.42-.358.471-.99.113-1.41-.359-.422-.991-.471-1.41-.113z"/><path d="m25.286 103.818c-1.93 0-3.5 1.57-3.5 3.5s1.57 3.5 3.5 3.5 3.5-1.57 3.5-3.5-1.57-3.5-3.5-3.5zm0 5c-.827 0-1.5-.673-1.5-1.5s.673-1.5 1.5-1.5 1.5.673 1.5 1.5-.673 1.5-1.5 1.5z"/><path d="m68.272 65.65c1.348 1.348 3.118 2.021 4.888 2.021s3.54-.674 4.888-2.021l25.808-25.808c.714-.714 1.335-1.484 1.915-2.275h8.395c1.93 0 3.5-1.57 3.5-3.5s-1.57-3.5-3.5-3.5h-5.098c1.594-6.511-.136-13.676-5.213-18.752-3.743-3.743-8.72-5.805-14.013-5.805s-10.271 2.062-14.013 5.805l-2.669 2.669-2.669-2.669c-3.743-3.743-8.72-5.805-14.013-5.805s-10.271 2.062-14.013 5.805c-3.743 3.743-5.805 8.72-5.805 14.013s2.062 10.271 5.805 14.014zm47.393-31.582c0 .827-.673 1.5-1.5 1.5h-22.548c-.36 0-.692.193-.87.507l-6.656 11.733c-.29.511-.808.821-1.454.752-.591-.059-1.092-.462-1.276-1.026l-6.081-18.633c-.123-.376-.456-.645-.85-.685-.034-.004-.068-.005-.102-.005-.356 0-.689.19-.868.505l-6.325 11.095c-.282.493-.793.771-1.343.756-.553-.015-1.052-.331-1.3-.826l-3.769-7.501c-.153-.305-.452-.511-.791-.546-.333-.033-.673.105-.886.373l-2.329 2.933c-.286.361-.714.567-1.175.567h-6.377c-.827 0-1.5-.673-1.5-1.5s.673-1.5 1.5-1.5h5.169c.305 0 .593-.139.783-.378l4.013-5.055c.32-.404.814-.61 1.328-.559.512.053.955.359 1.187.819l3.432 6.83c.166.33.499.541.867.551.358.019.712-.184.895-.504l6.811-11.946c.293-.514.868-.805 1.455-.75.59.06 1.09.463 1.274 1.027l6.077 18.617c.123.377.457.646.851.685.391.043.774-.157.97-.502l4.581-8.074c.266-.469.765-.76 1.304-.76h24.004c.827 0 1.499.673 1.499 1.5zm-71.787-20.838c3.365-3.365 7.84-5.219 12.599-5.219s9.234 1.854 12.599 5.219l3.376 3.376c.391.391 1.023.391 1.414 0l3.376-3.376c3.365-3.365 7.84-5.219 12.599-5.219s9.233 1.854 12.599 5.219c4.689 4.69 6.19 11.358 4.547 17.338h-16.826c-1.257 0-2.424.68-3.044 1.773l-3.463 6.104-5.374-16.463c-.429-1.315-1.596-2.256-2.976-2.396-1.379-.142-2.709.549-3.392 1.749l-5.886 10.325-2.594-5.163c-.54-1.073-1.574-1.787-2.767-1.91-1.194-.124-2.354.362-3.102 1.306l-3.712 4.676h-4.687c-1.93 0-3.5 1.57-3.5 3.5s1.57 3.5 3.5 3.5h6.377c1.075 0 2.074-.483 2.741-1.324l1.355-1.707 3.065 6.102c.58 1.156 1.743 1.895 3.026 1.928 1.304.047 2.496-.631 3.142-1.765l5.207-9.132 5.381 16.485c.43 1.317 1.598 2.258 2.973 2.396.119.012.237.018.354.018 1.257 0 2.424-.68 3.043-1.773l6.372-11.229h11.032c-.252.294-.512.583-.791.861l-25.808 25.807c-1.915 1.915-5.032 1.915-6.947 0l-25.808-25.807c-3.365-3.366-5.219-7.84-5.219-12.6s1.854-9.234 5.219-12.599z"/></g></g></g></g></svg>