<svg id="Layer_1" enable-background="new 0 0 512 512" height="512" viewBox="0 0 512 512" width="512" xmlns="http://www.w3.org/2000/svg"><g><path d="m166.5 232.898h330.5v196.67h-330.5z" fill="#ffc73b"/><path d="m166.5 402.068h330.5v27.5h-330.5z" fill="#ffa73e"/><g><path d="m311.36 202.598c.09 2.05-.66 4.03-2.08 5.51h-53.06c-1.41-1.48-2.17-3.46-2.08-5.51l5-120.48h47.22z" fill="#d4efff"/><path d="m311.36 202.598c.09 2.05-.66 4.03-2.08 5.51h-18c1.42-1.48 2.17-3.46 2.08-5.51l-5-120.48h18z" fill="#b7d4e2"/><path d="m326.37 202.918v29.98h-87.24v-29.98c0-4.15 3.36-7.5 7.5-7.5h72.24c4.14 0 7.5 3.35 7.5 7.5z" fill="#ff5a39"/><path d="m326.37 202.918v29.98h-21.99v-29.98c0-4.15-3.36-7.5-7.5-7.5h21.99c4.14 0 7.5 3.35 7.5 7.5z" fill="#ff2727"/><path d="m308.87 74.929h-52.237c-4.142 0-7.5 3.358-7.5 7.5s3.358 7.5 7.5 7.5h52.237c4.142 0 7.5-3.358 7.5-7.5s-3.358-7.5-7.5-7.5z" fill="#364c59"/></g><g><path d="m423.36 202.598c.09 2.05-.66 4.03-2.08 5.51h-53.06c-1.41-1.48-2.17-3.46-2.08-5.51l5-120.48h47.22z" fill="#d4efff"/><path d="m423.36 202.598c.09 2.05-.66 4.03-2.08 5.51h-18c1.42-1.48 2.17-3.46 2.08-5.51l-5-120.48h18z" fill="#b7d4e2"/><path d="m438.37 202.918v29.98h-87.24v-29.98c0-4.15 3.36-7.5 7.5-7.5h72.24c4.14 0 7.5 3.35 7.5 7.5z" fill="#ff5a39"/><path d="m438.37 202.918v29.98h-21.99v-29.98c0-4.15-3.36-7.5-7.5-7.5h21.99c4.14 0 7.5 3.35 7.5 7.5z" fill="#ff2727"/><path d="m420.869 74.929h-52.237c-4.142 0-7.5 3.358-7.5 7.5s3.358 7.5 7.5 7.5h52.237c4.142 0 7.5-3.358 7.5-7.5s-3.357-7.5-7.5-7.5z" fill="#364c59"/></g><path d="m166.5 232.898h330.5v27.5h-330.5z" fill="#668fa3"/><path d="m504.5 225.396h-330.498c-4.142 0-7.5 3.358-7.5 7.5s3.358 7.5 7.5 7.5h330.498c4.142 0 7.5-3.358 7.5-7.5s-3.358-7.5-7.5-7.5z" fill="#364c59"/><g fill="#d4efff"><path d="m211.194 299.913h39.404c4.142 0 7.5-3.358 7.5-7.5s-3.358-7.5-7.5-7.5h-39.404c-4.142 0-7.5 3.358-7.5 7.5s3.358 7.5 7.5 7.5z"/><path d="m258.1 322.408v107.16h-54.41v-107.16c0-4.14 3.36-7.5 7.5-7.5h39.41c4.14 0 7.5 3.36 7.5 7.5z"/></g><path d="m258.1 322.408v30h-54.41v-30c0-4.14 3.36-7.5 7.5-7.5h39.41c4.14 0 7.5 3.36 7.5 7.5z" fill="#668fa3"/><g fill="#d4efff"><path d="m283.431 299.913h39.404c4.142 0 7.5-3.358 7.5-7.5s-3.358-7.5-7.5-7.5h-39.404c-4.142 0-7.5 3.358-7.5 7.5s3.358 7.5 7.5 7.5z"/><path d="m330.34 322.408v107.16h-54.41v-107.16c0-4.14 3.36-7.5 7.5-7.5h39.41c4.14 0 7.5 3.36 7.5 7.5z"/></g><path d="m330.338 322.408v30h-54.41v-30c0-4.14 3.36-7.5 7.5-7.5h39.41c4.14 0 7.5 3.36 7.5 7.5z" fill="#668fa3"/><g fill="#d4efff"><path d="m355.668 299.913h39.404c4.142 0 7.5-3.358 7.5-7.5s-3.358-7.5-7.5-7.5h-39.404c-4.142 0-7.5 3.358-7.5 7.5s3.358 7.5 7.5 7.5z"/><path d="m402.57 322.408v107.16h-54.41v-107.16c0-4.14 3.36-7.5 7.5-7.5h39.41c4.14 0 7.5 3.36 7.5 7.5z"/></g><path d="m402.574 322.408v30h-54.41v-30c0-4.14 3.36-7.5 7.5-7.5h39.41c4.14 0 7.5 3.36 7.5 7.5z" fill="#668fa3"/><g fill="#d4efff"><path d="m427.905 299.913h39.404c4.142 0 7.5-3.358 7.5-7.5s-3.358-7.5-7.5-7.5h-39.404c-4.142 0-7.5 3.358-7.5 7.5s3.358 7.5 7.5 7.5z"/><path d="m474.81 322.408v107.16h-54.41v-107.16c0-4.14 3.36-7.5 7.5-7.5h39.41c4.14 0 7.5 3.36 7.5 7.5z"/></g><path d="m474.811 322.408v30h-54.41v-30c0-4.14 3.36-7.5 7.5-7.5h39.41c4.14 0 7.5 3.36 7.5 7.5z" fill="#668fa3"/><g fill="#b7d4e2"><path d="m203.69 402.068h54.41v27.5h-54.41z"/><path d="m275.93 402.068h54.41v27.5h-54.41z"/><path d="m348.16 402.068h54.41v27.5h-54.41z"/><path d="m420.4 402.068h54.41v27.5h-54.41z"/></g><path d="m15 148.738h166.5v280.83h-166.5z" fill="#ff5a39"/><path d="m15 402.068h166.5v27.5h-166.5z" fill="#ff2727"/><path d="m15 148.738h166.5v27.5h-166.5z" fill="#668fa3"/><g fill="#d4efff"><path d="m90.3 372.948v56.62h-15v-56.62c0-4.14 3.36-7.5 7.5-7.5s7.5 3.36 7.5 7.5z"/><path d="m120.97 372.948v56.62h-15v-56.62c0-4.14 3.35-7.5 7.5-7.5 4.14 0 7.5 3.36 7.5 7.5z"/><path d="m52.486 201.634c-4.142 0-7.5 3.358-7.5 7.5v21.561c0 4.142 3.358 7.5 7.5 7.5s7.5-3.358 7.5-7.5v-21.561c0-4.142-3.358-7.5-7.5-7.5z"/><path d="m83.153 201.634c-4.142 0-7.5 3.358-7.5 7.5v21.561c0 4.142 3.358 7.5 7.5 7.5s7.5-3.358 7.5-7.5v-21.561c0-4.142-3.358-7.5-7.5-7.5z"/><path d="m113.82 201.634c-4.142 0-7.5 3.358-7.5 7.5v21.561c0 4.142 3.358 7.5 7.5 7.5s7.5-3.358 7.5-7.5v-21.561c0-4.142-3.358-7.5-7.5-7.5z"/><path d="m144.487 201.634c-4.142 0-7.5 3.358-7.5 7.5v21.561c0 4.142 3.358 7.5 7.5 7.5s7.5-3.358 7.5-7.5v-21.561c0-4.142-3.358-7.5-7.5-7.5z"/><path d="m52.251 292.725c4.142 0 7.5-3.358 7.5-7.5v-21.561c0-4.142-3.358-7.5-7.5-7.5s-7.5 3.358-7.5 7.5v21.561c0 4.142 3.358 7.5 7.5 7.5z"/><path d="m82.917 292.725c4.142 0 7.5-3.358 7.5-7.5v-21.561c0-4.142-3.358-7.5-7.5-7.5s-7.5 3.358-7.5 7.5v21.561c0 4.142 3.358 7.5 7.5 7.5z"/><path d="m113.584 292.725c4.142 0 7.5-3.358 7.5-7.5v-21.561c0-4.142-3.358-7.5-7.5-7.5s-7.5 3.358-7.5 7.5v21.561c0 4.142 3.358 7.5 7.5 7.5z"/><path d="m144.251 292.725c4.142 0 7.5-3.358 7.5-7.5v-21.561c0-4.142-3.358-7.5-7.5-7.5s-7.5 3.358-7.5 7.5v21.561c0 4.142 3.358 7.5 7.5 7.5z"/><path d="m52.369 310.922c-4.142 0-7.5 3.358-7.5 7.5v21.561c0 4.142 3.358 7.5 7.5 7.5s7.5-3.358 7.5-7.5v-21.561c0-4.142-3.358-7.5-7.5-7.5z"/><path d="m83.036 310.922c-4.142 0-7.5 3.358-7.5 7.5v21.561c0 4.142 3.358 7.5 7.5 7.5s7.5-3.358 7.5-7.5v-21.561c0-4.142-3.358-7.5-7.5-7.5z"/><path d="m113.702 310.922c-4.142 0-7.5 3.358-7.5 7.5v21.561c0 4.142 3.358 7.5 7.5 7.5s7.5-3.358 7.5-7.5v-21.561c0-4.142-3.358-7.5-7.5-7.5z"/><path d="m144.369 310.922c-4.142 0-7.5 3.358-7.5 7.5v21.561c0 4.142 3.358 7.5 7.5 7.5s7.5-3.358 7.5-7.5v-21.561c0-4.142-3.358-7.5-7.5-7.5z"/><path d="m52.133 365.451c-4.142 0-7.5 3.358-7.5 7.5v21.561c0 4.142 3.358 7.5 7.5 7.5s7.5-3.358 7.5-7.5v-21.561c0-4.142-3.358-7.5-7.5-7.5z"/><path d="m144.133 365.451c-4.142 0-7.5 3.358-7.5 7.5v21.561c0 4.142 3.358 7.5 7.5 7.5s7.5-3.358 7.5-7.5v-21.561c0-4.142-3.358-7.5-7.5-7.5z"/></g><path d="m75.3 402.068h15v27.5h-15z" fill="#b7d4e2"/><path d="m105.97 402.068h15v27.5h-15z" fill="#b7d4e2"/><path d="m504.5 422.071h-497c-4.142 0-7.5 3.358-7.5 7.5s3.358 7.5 7.5 7.5h497c4.142 0 7.5-3.358 7.5-7.5s-3.358-7.5-7.5-7.5z" fill="#364c59"/><path d="m189.002 141.242h-181.502c-4.142 0-7.5 3.358-7.5 7.5s3.358 7.5 7.5 7.5h181.502c4.142 0 7.5-3.358 7.5-7.5s-3.358-7.5-7.5-7.5z" fill="#364c59"/></g></svg>