<svg id="Layer_1" enable-background="new 0 0 510.91 510.91" height="512" viewBox="0 0 510.91 510.91" width="512" xmlns="http://www.w3.org/2000/svg"><g><path d="m510.91 378.483h-151.14v-150.03l63.07.07s54.37 92.29 74.88 127.39z" fill="#146666"/><path d="m359.77 228.453v150.03h-25v-150.06z" fill="#00a98f"/><path d="m484.45 258.483h-124.68l-12.5-71.038 12.5-54.012h32.58z" fill="#00a98f"/><path d="m359.77 133.433v125.05h-84.19v-54.98l51.61-70.07z" fill="#29cc95"/><path d="m339.249 193.433h-189.156l-79.77 261.326 226.817 30.808h192.2z" fill="#283366"/><path d="m446.98 163.433h-87.21l-12.5-64.233 12.5-73.857z" fill="#29cc95"/><path d="m359.77 25.343v138.09h-87.21z" fill="#95ff80"/><g><path d="m120.19 89.253c0 33.13-26.86 59.99-59.99 60l-11.943-60 11.943-60c33.13.01 59.99 26.86 59.99 60z" fill="#ffc34d"/><path d="m60.2 29.253v120h-.01c-32.75 0-59.35-26.24-59.97-58.83.11-7.15 1.21-14.07 3.2-20.6 8.08-23.6 30.43-40.57 56.77-40.57h.01z" fill="#ffff80"/></g><path d="m297.14 485.563h-147.05l-14.711-129.167 14.711-162.963z" fill="#5f55ae"/><path d="m150.09 193.433v292.13h-150.09z" fill="#8080ff"/></g></svg>